<svg width="370" height="119" viewBox="0 0 370 119" fill="none" xmlns="http://www.w3.org/2000/svg">
<g clip-path="url(#clip0_1_8)">
<path d="M14.884 47.0582H19.2252C24.3107 30.5866 39.2194 18.4314 57.0554 17.3895V14.239C54.2274 13.2219 52.1934 10.5428 52.1934 7.36752C52.1934 3.29918 55.4926 0 59.5361 0C63.5796 0 66.8789 3.29918 66.8789 7.36752C66.8789 10.5428 64.8448 13.2219 62.0168 14.239V17.3895C79.8528 18.4314 94.7616 30.5866 99.847 47.0582H104.188C109.67 47.0582 114.111 51.4987 114.111 56.9809V66.9036C114.111 72.3611 109.67 76.8263 104.188 76.8263H101.707V91.8343C100.889 91.76 100.07 91.7103 99.2268 91.7103H86.8235V84.2683C86.8235 82.8791 85.7071 81.7876 84.3428 81.7876H34.7294C33.365 81.7876 32.2487 82.8791 32.2487 84.2683V91.7103H19.8454C19.002 91.7103 18.1834 91.76 17.3647 91.8343V76.8263H14.884C9.42667 76.8263 4.96135 72.3611 4.96135 66.9036V56.9809C4.96135 51.4987 9.42667 47.0582 14.884 47.0582ZM79.3814 71.8649C86.2281 71.8649 91.7848 66.2834 91.7848 59.4616C91.7848 52.6149 86.2281 47.0582 79.3814 47.0582C72.5348 47.0582 66.9781 52.6149 66.9781 59.4616C66.9781 66.2834 72.5348 71.8649 79.3814 71.8649ZM39.6907 71.8649C46.5374 71.8649 52.0941 66.2834 52.0941 59.4616C52.0941 52.6149 46.5374 47.0582 39.6907 47.0582C32.8441 47.0582 27.2874 52.6149 27.2874 59.4616C27.2874 66.2834 32.8441 71.8649 39.6907 71.8649Z" fill="url(#paint0_linear_1_8)"/>
<path d="M19.8454 96.6716H99.2268C110.167 96.6716 119.072 105.552 119.072 116.517C119.072 117.881 117.956 118.998 116.591 118.998H2.48067C1.11633 118.998 -3.8147e-06 117.881 -3.8147e-06 116.517C-3.8147e-06 105.552 8.90567 96.6716 19.8454 96.6716Z" fill="url(#paint1_linear_1_8)"/>
<path d="M145.148 43.0148C145.593 43.0148 145.972 43.1708 146.284 43.4826C146.595 43.7944 146.751 44.1731 146.751 44.6186V47.8706C146.751 48.3161 146.595 48.6947 146.284 49.0066C145.972 49.3184 145.593 49.4743 145.148 49.4743H140.559C140.143 49.4743 139.78 49.3184 139.468 49.0066C139.156 48.6947 139 48.3161 139 47.8706V44.6186C139 44.1731 139.156 43.7944 139.468 43.4826C139.78 43.1708 140.143 43.0148 140.559 43.0148H145.148ZM165.061 43.0148C165.476 43.0148 165.84 43.1708 166.152 43.4826C166.464 43.7944 166.62 44.1731 166.62 44.6186V47.8706C166.62 48.3161 166.464 48.6947 166.152 49.0066C165.84 49.3184 165.476 49.4743 165.061 49.4743H156.106V74.7776C156.106 75.1933 155.951 75.5572 155.639 75.869C155.327 76.1808 154.963 76.3367 154.547 76.3367H151.117C150.672 76.3367 150.293 76.1808 149.981 75.869C149.669 75.5572 149.513 75.1933 149.513 74.7776V44.6186C149.513 44.1731 149.669 43.7944 149.981 43.4826C150.293 43.1708 150.672 43.0148 151.117 43.0148H165.061V43.0148ZM194.418 69.6545C194.863 69.6545 195.234 69.8105 195.531 70.1223C195.828 70.4341 195.977 70.8128 195.977 71.2583V74.5103C195.977 74.9261 195.828 75.2899 195.531 75.6017C195.234 75.9135 194.863 76.0695 194.418 76.0695H172.411C171.995 76.0695 171.631 75.9135 171.32 75.6017C171.008 75.2899 170.852 74.9261 170.852 74.5103V71.2583C170.852 70.8128 171.008 70.4341 171.32 70.1223C171.631 69.8105 171.995 69.6545 172.411 69.6545H194.418ZM172.411 62.7496C171.995 62.7496 171.631 62.5937 171.32 62.2819C171.008 61.97 170.852 61.6062 170.852 61.1904V57.8493C170.852 57.4335 171.008 57.0697 171.32 56.7579C171.631 56.4461 171.995 56.2901 172.411 56.2901H192.413C192.859 56.2901 193.237 56.4461 193.549 56.7579C193.861 57.0697 194.017 57.4335 194.017 57.8493V61.1904C194.017 61.6062 193.861 61.97 193.549 62.2819C193.237 62.5937 192.859 62.7496 192.413 62.7496H172.411ZM194.418 43.0148C194.863 43.0148 195.234 43.1708 195.531 43.4826C195.828 43.7944 195.977 44.1582 195.977 44.574V47.826C195.977 48.2715 195.828 48.6502 195.531 48.962C195.234 49.2738 194.863 49.4298 194.418 49.4298H172.411C171.995 49.4298 171.631 49.2738 171.32 48.962C171.008 48.6502 170.852 48.2715 170.852 47.826V44.574C170.852 44.1582 171.008 43.7944 171.32 43.4826C171.631 43.1708 171.995 43.0148 172.411 43.0148H194.418ZM217.805 49.3852C217.419 49.3258 217.1 49.1476 216.848 48.8506C216.595 48.5536 216.469 48.2121 216.469 47.826V44.574C216.469 44.0692 216.647 43.6682 217.004 43.3712C217.36 43.0742 217.776 42.9555 218.251 43.0148C220.805 43.4306 223.077 44.3364 225.067 45.7323C227.65 47.6033 229.477 50.0831 230.546 53.1718C230.724 53.6767 230.665 54.1518 230.368 54.5973C230.071 55.0428 229.64 55.2655 229.076 55.2655H225.512C225.185 55.2655 224.889 55.1839 224.621 55.0205C224.354 54.8572 224.161 54.627 224.042 54.33C223.389 52.7857 222.394 51.5532 221.057 50.6326C220.018 49.9792 218.934 49.5634 217.805 49.3852V49.3852ZM229.076 64.1751C229.64 64.1751 230.071 64.3979 230.368 64.8434C230.665 65.2888 230.724 65.764 230.546 66.2689C229.477 69.3576 227.65 71.8374 225.067 73.7084C223.077 75.1042 220.805 76.0101 218.251 76.4258H218.028C217.612 76.4258 217.271 76.2922 217.004 76.0249C216.647 75.7576 216.469 75.3715 216.469 74.8667V71.6147C216.469 71.2286 216.588 70.887 216.825 70.59C217.063 70.2931 217.375 70.1149 217.761 70.0555C219.008 69.8773 220.107 69.4615 221.057 68.8081C222.394 67.8875 223.389 66.655 224.042 65.1106C224.161 64.8137 224.354 64.5835 224.621 64.4202C224.889 64.2568 225.185 64.1751 225.512 64.1751H229.076V64.1751ZM213.128 43.5494C213.514 43.8464 213.707 44.2473 213.707 44.7522V48.227C213.707 48.5536 213.596 48.8581 213.373 49.1402C213.15 49.4223 212.875 49.6228 212.549 49.7416C212.133 49.8307 211.806 49.9346 211.569 50.0534C210.381 50.588 209.371 51.3156 208.539 52.2363C206.847 54.137 206 56.6243 206 59.6981C206 62.7719 206.847 65.274 208.539 67.2044C209.579 68.3924 210.915 69.2239 212.549 69.6991C212.875 69.7882 213.15 69.9738 213.373 70.2559C213.596 70.5381 213.707 70.8425 213.707 71.1692V74.6885C213.707 75.1933 213.514 75.5943 213.128 75.8913C212.861 76.1289 212.519 76.2476 212.103 76.2476H211.791C208.614 75.5646 205.926 74.0202 203.728 71.6147C200.907 68.4369 199.496 64.4721 199.496 59.7203C199.496 54.9686 200.907 51.0038 203.728 47.826C205.926 45.3907 208.614 43.8613 211.791 43.2376C212.267 43.1188 212.712 43.2227 213.128 43.5494V43.5494ZM262.977 43.0148C263.393 43.0148 263.757 43.1708 264.068 43.4826C264.38 43.7944 264.536 44.1582 264.536 44.574V74.4212C264.536 74.837 264.38 75.2008 264.068 75.5126C263.757 75.8244 263.393 75.9804 262.977 75.9804H259.057C258.522 75.9804 258.092 75.7725 257.765 75.3567L235.981 45.5095C235.803 45.2719 235.699 45.0047 235.669 44.7077C235.639 44.4107 235.691 44.1285 235.825 43.8613C235.959 43.594 236.152 43.3861 236.404 43.2376C236.657 43.0891 236.931 43.0148 237.228 43.0148H241.149C241.386 43.0148 241.624 43.0668 241.861 43.1708C242.099 43.2747 242.277 43.4306 242.396 43.6385L258.032 64.8879V44.574C258.032 44.1582 258.181 43.7944 258.478 43.4826C258.775 43.1708 259.146 43.0148 259.591 43.0148H262.977V43.0148ZM240.614 64.6206C241.03 64.6206 241.394 64.7691 241.705 65.0661C242.017 65.3631 242.173 65.7343 242.173 66.1798V74.4212C242.173 74.837 242.017 75.2008 241.705 75.5126C241.394 75.8244 241.03 75.9804 240.614 75.9804H237.228C236.813 75.9804 236.449 75.8244 236.137 75.5126C235.825 75.2008 235.669 74.837 235.669 74.4212V66.1798C235.669 65.7343 235.825 65.3631 236.137 65.0661C236.449 64.7691 236.813 64.6206 237.228 64.6206H240.614ZM284.672 43.3712C285.028 43.6682 285.206 44.0692 285.206 44.574V47.9151C285.206 48.3012 285.095 48.6353 284.872 48.9175C284.65 49.1996 284.345 49.3852 283.959 49.4743C282.058 49.8604 280.44 50.7662 279.103 52.1917C277.292 54.0924 276.386 56.5649 276.386 59.609C276.386 62.6531 277.292 65.1403 279.103 67.0708C280.44 68.4666 282.058 69.3576 283.959 69.7436C284.345 69.8327 284.65 70.0184 284.872 70.3005C285.095 70.5826 285.206 70.9167 285.206 71.3028V74.6439C285.206 75.1191 285.028 75.52 284.672 75.8467C284.345 76.0843 284.004 76.2031 283.647 76.2031H283.38C279.935 75.6388 276.98 74.0796 274.515 71.5256C271.426 68.3478 269.882 64.3905 269.882 59.6535C269.882 54.9166 271.426 50.9295 274.515 47.6924C276.921 45.1977 279.876 43.6534 283.38 43.0594C283.855 42.9703 284.286 43.0742 284.672 43.3712V43.3712ZM298.66 47.6924C301.749 50.9295 303.293 54.9166 303.293 59.6535C303.293 64.3905 301.749 68.3478 298.66 71.5256C296.195 74.0796 293.24 75.6388 289.795 76.2031H289.528C289.171 76.2031 288.83 76.0843 288.503 75.8467C288.147 75.52 287.968 75.1191 287.968 74.6439V71.3028C287.968 70.9167 288.08 70.5826 288.303 70.3005C288.525 70.0184 288.83 69.8327 289.216 69.7436C291.117 69.3576 292.735 68.4666 294.072 67.0708C295.883 65.1403 296.789 62.6531 296.789 59.609C296.789 56.5649 295.883 54.0924 294.072 52.1917C292.735 50.7662 291.117 49.8604 289.216 49.4743C288.83 49.3852 288.525 49.1996 288.303 48.9175C288.08 48.6353 287.968 48.3012 287.968 47.9151V44.574C287.968 44.0692 288.154 43.6682 288.525 43.3712C288.897 43.0742 289.32 42.9703 289.795 43.0594C293.299 43.6534 296.254 45.1977 298.66 47.6924V47.6924ZM336.437 43.7276C336.763 44.1731 336.823 44.6631 336.615 45.1977L324.409 75.3567C324.29 75.6537 324.097 75.8913 323.83 76.0695C323.562 76.2476 323.265 76.3367 322.939 76.3367H319.018C318.692 76.3367 318.395 76.2476 318.127 76.0695C317.86 75.8913 317.667 75.6537 317.548 75.3567L305.342 45.1977C305.105 44.6928 305.149 44.2028 305.476 43.7276C305.802 43.2524 306.233 43.0148 306.768 43.0148H321.647C322.063 43.0148 322.426 43.1708 322.738 43.4826C323.05 43.7944 323.206 44.1731 323.206 44.6186V47.8706C323.206 48.3161 323.05 48.6947 322.738 49.0066C322.426 49.3184 322.063 49.4743 321.647 49.4743H314.163L320.979 66.6253L329.933 43.9949C330.051 43.6979 330.244 43.4603 330.512 43.2821C330.779 43.1039 331.076 43.0148 331.403 43.0148H335.145C335.412 43.0148 335.664 43.0817 335.902 43.2153C336.14 43.349 336.318 43.5197 336.437 43.7276V43.7276ZM369.803 73.8866C370.011 74.3618 369.959 74.8444 369.647 75.3344C369.335 75.8244 368.912 76.0695 368.378 76.0695H338.709C338.441 76.0695 338.189 76.0026 337.951 75.869C337.714 75.7353 337.536 75.5646 337.417 75.3567C337.09 74.8815 337.045 74.3915 337.283 73.8866L338.664 70.6346C338.783 70.3376 338.976 70.1 339.243 69.9218C339.51 69.7436 339.793 69.6545 340.09 69.6545H360.849L353.543 52.1917L347.574 66.4471C347.455 66.7441 347.269 66.9742 347.017 67.1376C346.764 67.3009 346.475 67.3826 346.148 67.3826H342.406C341.842 67.3826 341.396 67.145 341.07 66.6698C340.951 66.4619 340.877 66.2243 340.847 65.9571C340.817 65.6898 340.847 65.4373 340.936 65.1997L349.979 43.9949C350.098 43.6979 350.284 43.4603 350.536 43.2821C350.789 43.1039 351.078 43.0148 351.405 43.0148H355.681C356.008 43.0148 356.298 43.1039 356.55 43.2821C356.803 43.4603 356.988 43.6979 357.107 43.9949L369.803 73.8866Z" fill="url(#paint2_linear_1_8)"/>
</g>
<defs>
<linearGradient id="paint0_linear_1_8" x1="114.111" y1="0" x2="4.96134" y2="0" gradientUnits="userSpaceOnUse">
<stop stop-color="#EF4136"/>
<stop offset="1" stop-color="#FBB040"/>
</linearGradient>
<linearGradient id="paint1_linear_1_8" x1="119.072" y1="96.6716" x2="0" y2="96.6716" gradientUnits="userSpaceOnUse">
<stop stop-color="#EF4136"/>
<stop offset="1" stop-color="#FBB040"/>
</linearGradient>
<linearGradient id="paint2_linear_1_8" x1="139" y1="43" x2="369.928" y2="43" gradientUnits="userSpaceOnUse">
<stop stop-color="#51504F"/>
<stop offset="0.5" stop-color="#939598"/>
<stop offset="1" stop-color="#51504F"/>
</linearGradient>
<clipPath id="clip0_1_8">
<rect width="369.928" height="118.998" fill="white"/>
</clipPath>
</defs>
</svg>
